<?xml version="1.0" encoding="UTF-8"?>
<svg xmlns="http://www.w3.org/2000/svg" height="512px" viewBox="-17 0 489 489.54641" width="512px" class=""><g><path d="m447.089844 188.011719-42.113282-4.058594c-4.46875-17.929687-11.683593-35.0625-21.382812-50.792969l26.84375-32.40625c2.636719-3.179687 2.417969-7.839844-.5-10.757812l-45.550781-45.554688c-2.917969-2.917968-7.578125-3.132812-10.757813-.5l-32.429687 26.851563c-15.757813-9.628907-32.871094-16.839844-50.769531-21.390625l-4.0625-42.171875c-.394532-4.101563-3.84375-7.230469-7.964844-7.230469h-62.253906c-4.121094 0-7.566407 3.128906-7.960938 7.230469l-4.066406 42.171875c-17.898438 4.546875-35.011719 11.761718-50.769532 21.390625l-32.429687-26.859375c-3.175781-2.632813-7.835937-2.417969-10.757813.5l-45.550781 45.558594c-2.917969 2.921874-3.136719 7.582031-.5 10.761718l26.835938 32.402344c-9.707031 15.730469-16.925781 32.867188-21.398438 50.800781l-42.089843 4.0625c-4.09375.398438-7.207032 3.847657-7.1875 7.960938v64.578125c-.023438 4.109375 3.089843 7.5625 7.183593 7.960937l42.140625 4.0625c4.542969 17.894531 11.75 35.011719 21.375 50.769531l-26.863281 32.425782c-2.753906 3.324218-2.375 8.234375.859375 11.097656l34.550781 30.558594c1.707031 1.511718 3.980469 2.222656 6.25 1.953125 2.265625-.273438 4.308594-1.5 5.613281-3.371094l49.65625-71.25c2.214844-3.179687 1.832032-7.492187-.910156-10.234375-47.640625-47.640625-47.644531-124.886719 0-172.53125 47.644532-47.644531 124.890625-47.644531 172.535156 0 47.644532 47.644531 47.644532 124.890625 0 172.53125-2.777343 2.777344-3.128906 7.15625-.832031 10.339844l51.402344 71.246094c1.320313 1.832031 3.355469 3.019531 5.601563 3.269531 2.246093.25 4.492187-.460938 6.183593-1.957031l34.5625-30.546876c3.234375-2.859374 3.617188-7.773437.859375-11.101562l-26.855468-32.429688c9.628906-15.757812 16.839843-32.871093 21.386718-50.769531l42.117188-4.0625c4.09375-.398437 7.207031-3.851562 7.183594-7.960937v-64.585938c.019531-4.109375-3.089844-7.5625-7.183594-7.960937zm-8.816406 65.277343-40.574219 3.914063c-3.445313.332031-6.28125 2.851563-7.019531 6.234375-4.410157 20.003906-12.429688 39.035156-23.660157 56.167969-1.921875 2.9375-1.703125 6.785156.535157 9.484375l25.625 30.933594-22.136719 19.570312-42.351563-58.703125c49.039063-54.097656 47.46875-138.023437-4.714844-190.207031-53.804687-53.804688-141.355468-53.804688-195.160156 0-52.210937 52.210937-53.753906 136.199218-4.640625 190.289062l-40.785156 58.523438-22.023437-19.476563 25.621093-30.933593c2.238281-2.707032 2.453125-6.550782.53125-9.488282-11.234375-17.128906-19.257812-36.160156-23.679687-56.160156-.726563-3.378906-3.554688-5.898438-6.992188-6.234375l-40.574218-3.914063v-50.042968l40.574218-3.917969c3.460938-.335937 6.304688-2.871094 7.027344-6.273437 4.304688-20.007813 12.324219-39.027344 23.636719-56.082032 1.945312-2.941406 1.734375-6.808594-.515625-9.523437l-25.917969-31.292969 35.25-35.253906 31.292969 25.914062c2.703125 2.242188 6.550781 2.457032 9.484375.53125 17.128906-11.234375 36.160156-19.257812 56.160156-23.675781 3.386719-.75 5.902344-3.59375 6.234375-7.042969l3.914062-40.625h47.722657l3.917969 40.625c.332031 3.449219 2.847656 6.292969 6.230468 7.042969 20.003906 4.417969 39.035156 12.445313 56.164063 23.679687 2.933593 1.925782 6.78125 1.710938 9.484375-.53125l31.289062-25.914062 35.25 35.25-25.914062 31.292969c-2.246094 2.714843-2.453125 6.582031-.507813 9.519531 11.316407 17.054688 19.335938 36.078125 23.644531 56.085938.710938 3.398437 3.546876 5.9375 7 6.273437l40.578126 3.914063zm0 0" data-original="#000000" class="active-path" data-old_color="#000000" fill="#FFFFFF"/><path d="m255.171875 369.050781v-121.472656c20.164063-11.644531 33.402344-33.75 33.402344-56.53125 0-31.128906-17.800781-53.800781-47.617188-60.640625-2.484375-.570312-5.085937.074219-7.015625 1.734375-1.925781 1.664063-2.949218 4.144531-2.753906 6.683594l2.644531 33.949219c-6.679687 3.503906-14.648437 3.507812-21.332031.007812l2.84375-34.136719c.21875-2.625-.867188-5.1875-2.90625-6.855469-2.039062-1.667968-4.765625-2.226562-7.292969-1.492187-27.269531 7.898437-44.257812 31.351563-44.257812 61.214844 0 27.410156 14.382812 49.582031 38.382812 59.191406v121.003906c-17 10.035157-33.378906 30.398438-33.121093 56.308594 0 30.875 17.601562 53.699219 47.03125 61.0625 2.5.625 5.144531.011719 7.113281-1.648437 1.96875-1.660157 3.019531-4.164063 2.824219-6.730469l-2.632813-33.945313c6.675781-3.503906 14.648437-3.507812 21.332031-.011718l-2.84375 34.140624c-.21875 2.625.867188 5.1875 2.90625 6.855469 2.039063 1.667969 4.765625 2.226563 7.292969 1.492188 27.136719-7.863281 44.160156-31.199219 44.433594-60.988281.003906-27.414063-14.566407-49.582032-38.433594-59.191407zm.855469 99.851563 2.128906-25.582032c.226562-2.722656-.949219-5.371093-3.121094-7.027343l-.300781-.230469c-14.085937-10.691406-33.601563-10.5625-47.542969.3125-2.09375 1.652344-3.226562 4.242188-3.019531 6.902344l2.042969 26.316406c-15.402344-7.675781-24.015625-22.339844-24.015625-41.65625-.207031-21.046875 14.613281-37.636719 28.515625-44.152344 2.800781-1.320312 4.578125-4.148437 4.558594-7.246094v-131.503906c.019531-3.519531-2.273438-6.632812-5.640626-7.660156-20.199218-6.097656-32.71875-23.671875-32.71875-45.871094 0-17.878906 7.953126-32.660156 21.363282-40.886718l-2.121094 25.582031c-.226562 2.726562.953125 5.378906 3.132812 7.03125l.296876.226562c14.066406 10.6875 33.5625 10.574219 47.5-.273437.070312-.054688.148437-.117188.214843-.171875 1.992188-1.660157 3.054688-4.183594 2.855469-6.769531l-2.070312-26.597657c15.710937 7.363281 24.496093 21.960938 24.496093 41.40625 0 18.125-11.855469 36.414063-28.832031 44.476563-2.789062 1.324218-4.566406 4.136718-4.566406 7.226562v131.960938c0 3.527344 2.3125 6.636718 5.6875 7.65625 20.203125 6.101562 32.746094 23.675781 32.746094 45.800781-.171876 17.800781-8.191407 32.53125-21.585938 40.730469zm0 0" data-original="#000000" class="active-path" data-old_color="#000000" fill="#FFFFFF"/></g> </svg>