<?xml version="1.0" encoding="UTF-8"?>
<svg xmlns="http://www.w3.org/2000/svg" xmlns:xlink="http://www.w3.org/1999/xlink" version="1.1" id="Capa_1" x="0px" y="0px" viewBox="0 0 512 512" style="enable-background:new 0 0 512 512;" xml:space="preserve" width="512px" height="512px" class=""><g><g>
	<g>
		<path d="M472.423,112.219h-80.157c-4.151,0-7.515,3.365-7.515,7.515c0,4.15,3.364,7.515,7.515,7.515h40.579v257.503H79.155    V127.249h278.043c4.151,0,7.515-3.365,7.515-7.515c0-4.15-3.364-7.515-7.515-7.515H39.577C17.755,112.219,0,129.974,0,151.796    v208.407c0,21.823,17.755,39.577,39.577,39.577h432.845c21.823,0,39.577-17.755,39.577-39.577V151.796    C512,129.974,494.245,112.219,472.423,112.219z M64.125,384.751H39.577c-13.536,0-24.548-11.013-24.548-24.548V151.796    c0-13.535,11.011-24.548,24.548-24.548h24.548V384.751z M496.971,360.203c0,13.535-11.011,24.548-24.548,24.548h-24.548V127.249    h24.548c13.536,0,24.548,11.013,24.548,24.548V360.203z" data-original="#000000" class="active-path" data-old_color="#000000" fill="#FFFFFF"/>
	</g>
</g><g>
	<g>
		<path d="M464.407,240.47c-4.151,0-7.515,3.365-7.515,7.515v32.063c0,4.15,3.364,7.515,7.515,7.515s7.515-3.365,7.515-7.515    v-32.063C471.922,243.834,468.558,240.47,464.407,240.47z" data-original="#000000" class="active-path" data-old_color="#000000" fill="#FFFFFF"/>
	</g>
</g><g>
	<g>
		<path d="M39.577,256.501h-1.002c-4.151,0-7.515,3.365-7.515,7.515c0,4.15,3.364,7.515,7.515,7.515h1.002    c4.151,0,7.515-3.365,7.515-7.515C47.092,259.866,43.728,256.501,39.577,256.501z" data-original="#000000" class="active-path" data-old_color="#000000" fill="#FFFFFF"/>
	</g>
</g><g>
	<g>
		<path d="M39.577,216.423h-1.002c-4.151,0-7.515,3.365-7.515,7.515s3.364,7.515,7.515,7.515h1.002c4.151,0,7.515-3.365,7.515-7.515    S43.728,216.423,39.577,216.423z" data-original="#000000" class="active-path" data-old_color="#000000" fill="#FFFFFF"/>
	</g>
</g><g>
	<g>
		<path d="M39.577,296.579h-1.002c-4.151,0-7.515,3.365-7.515,7.515s3.364,7.515,7.515,7.515h1.002c4.151,0,7.515-3.365,7.515-7.515    S43.728,296.579,39.577,296.579z" data-original="#000000" class="active-path" data-old_color="#000000" fill="#FFFFFF"/>
	</g>
</g><g>
	<g>
		<path d="M328.141,160.313H183.859c-52.762,0-95.687,42.925-95.687,95.687s42.925,95.687,95.687,95.687    c27.761,0,54.064-12.115,72.141-32.831c18.077,20.716,44.38,32.831,72.141,32.831c52.762,0,95.687-42.925,95.687-95.687    S380.903,160.313,328.141,160.313z M328.141,336.658c-26.21,0-50.881-12.816-65.996-34.282c-1.408-1.999-3.699-3.188-6.145-3.188    s-4.737,1.189-6.145,3.188c-15.115,21.466-39.786,34.282-65.996,34.282c-44.475,0-80.658-36.183-80.658-80.658    s36.183-80.658,80.658-80.658h144.282c44.475,0,80.658,36.183,80.658,80.658S372.616,336.658,328.141,336.658z" data-original="#000000" class="active-path" data-old_color="#000000" fill="#FFFFFF"/>
	</g>
</g><g>
	<g>
		<path d="M328.141,192.376c-12.983,0-23.546,10.563-23.546,23.546c0,12.983,10.563,23.546,23.546,23.546    c12.983,0,23.546-10.563,23.546-23.546C351.687,202.938,341.124,192.376,328.141,192.376z M328.141,224.438    c-4.696,0-8.517-3.82-8.517-8.517s3.82-8.517,8.517-8.517c4.696,0,8.517,3.82,8.517,8.517S332.837,224.438,328.141,224.438z" data-original="#000000" class="active-path" data-old_color="#000000" fill="#FFFFFF"/>
	</g>
</g><g>
	<g>
		<path d="M328.141,272.532c-12.983,0-23.546,10.563-23.546,23.546c0,12.983,10.563,23.546,23.546,23.546    c12.983,0,23.546-10.563,23.546-23.546C351.687,283.095,341.124,272.532,328.141,272.532z M328.141,304.595    c-4.696,0-8.517-3.82-8.517-8.517c0-4.696,3.82-8.517,8.517-8.517c4.696,0,8.517,3.82,8.517,8.517    C336.658,300.774,332.837,304.595,328.141,304.595z" data-original="#000000" class="active-path" data-old_color="#000000" fill="#FFFFFF"/>
	</g>
</g><g>
	<g>
		<path d="M368.219,232.454c-12.983,0-23.546,10.563-23.546,23.546s10.563,23.546,23.546,23.546s23.546-10.563,23.546-23.546    S381.203,232.454,368.219,232.454z M368.219,264.517c-4.696,0-8.517-3.82-8.517-8.517s3.82-8.517,8.517-8.517    s8.517,3.82,8.517,8.517S372.915,264.517,368.219,264.517z" data-original="#000000" class="active-path" data-old_color="#000000" fill="#FFFFFF"/>
	</g>
</g><g>
	<g>
		<path d="M288.063,232.454c-12.983,0-23.546,10.563-23.546,23.546s10.563,23.546,23.546,23.546s23.546-10.563,23.546-23.546    S301.046,232.454,288.063,232.454z M288.063,264.517c-4.696,0-8.517-3.82-8.517-8.517s3.82-8.517,8.517-8.517    s8.517,3.82,8.517,8.517S292.759,264.517,288.063,264.517z" data-original="#000000" class="active-path" data-old_color="#000000" fill="#FFFFFF"/>
	</g>
</g><g>
	<g>
		<path d="M215.922,232.454h-16.532v-16.532c0-4.15-3.364-7.515-7.515-7.515h-32.063c-4.151,0-7.515,3.365-7.515,7.515v16.532    h-16.532c-4.151,0-7.515,3.365-7.515,7.515v32.063c0,4.15,3.364,7.515,7.515,7.515h16.532v16.532c0,4.15,3.364,7.515,7.515,7.515    h32.063c4.151,0,7.515-3.365,7.515-7.515v-16.532h16.532c4.151,0,7.515-3.365,7.515-7.515v-32.063    C223.436,235.819,220.073,232.454,215.922,232.454z M208.407,264.517h-16.532c-4.151,0-7.515,3.365-7.515,7.515v16.532h-17.033    v-16.532c0-4.15-3.364-7.515-7.515-7.515H143.28v-17.033h16.532c4.151,0,7.515-3.365,7.515-7.515v-16.532h17.033v16.532    c0,4.15,3.364,7.515,7.515,7.515h16.532V264.517z" data-original="#000000" class="active-path" data-old_color="#000000" fill="#FFFFFF"/>
	</g>
</g></g> </svg>