<?xml version="1.0" encoding="UTF-8"?>
<svg xmlns="http://www.w3.org/2000/svg" height="512px" viewBox="-31 0 479 480" width="512px" class=""><g><path d="m120.5 304c22.089844 0 40-17.910156 40-40s-17.910156-40-40-40-40 17.910156-40 40c.027344 22.082031 17.917969 39.972656 40 40zm0-64c13.253906 0 24 10.746094 24 24s-10.746094 24-24 24-24-10.746094-24-24 10.746094-24 24-24zm0 0" data-original="#000000" class="active-path" data-old_color="#000000" fill="#FFFFFF"/><path d="m416.5 200h-22.046875l15.597656-15.601562-33.949219-33.949219-15.601562 15.597656v-22.046875h-24v-104c-.027344-22.082031-17.917969-39.9726562-40-40h-208c-22.082031.0273438-39.972656 17.917969-40 40v126.289062l-35.472656 35.472657 26.886718 26.886719c-.476562 1.085937-.933593 2.199218-1.390624 3.351562h-38.023438v64h38.023438c.457031 1.152344.914062 2.265625 1.390624 3.351562l-26.886718 26.886719 35.472656 35.472657v78.289062c.027344 22.082031 17.917969 39.972656 40 40h208c22.082031-.027344 39.972656-17.917969 40-40v-136h24v-22.046875l15.601562 15.597656 33.949219-33.949219-15.597656-15.601562h22.046875zm-328-184h208c13.253906 0 24 10.746094 24 24v8h-256v-8c0-13.253906 10.746094-24 24-24zm-28.976562 286.398438-2.886719-5.253907c-1.964844-3.691406-3.570313-7.5625-4.800781-11.558593l-1.824219-5.585938h-33.511719v-32h33.511719l1.785156-5.550781c1.230469-3.996094 2.835937-7.867188 4.800781-11.5625l2.886719-5.253907-23.832031-23.871093 22.609375-22.609375 23.839843 23.871094 5.253907-2.886719c3.691406-1.976563 7.5625-3.597657 11.558593-4.839844l5.585938-1.785156v-33.511719h32v33.511719l5.550781 1.785156c4 1.242187 7.871094 2.863281 11.5625 4.839844l5.253907 2.886719 23.871093-23.871094 22.5625 22.609375-23.824219 23.839843 2.886719 5.253907c1.976563 3.691406 3.597657 7.5625 4.839844 11.558593l1.785156 5.554688h33.511719v32h-33.511719l-1.785156 5.550781c-1.242187 4-2.863281 7.871094-4.839844 11.558594l-2.886719 5.257813 23.824219 23.902343-22.5625 22.609375-23.839843-23.871094-5.253907 2.886719c-3.691406 1.976563-7.5625 3.597657-11.558593 4.839844l-5.585938 1.785156v33.511719h-32v-33.511719l-5.550781-1.785156c-4-1.242187-7.871094-2.863281-11.5625-4.839844l-5.253907-2.886719-23.871093 23.871094-22.609375-22.609375zm236.976562 161.601562h-208c-13.253906 0-24-10.746094-24-24v-24h256v24c0 13.253906-10.746094 24-24 24zm24-64h-256v-34.769531l20.648438-20.644531c1.085937.476562 2.199218.933593 3.351562 1.390624v38.023438h64v-38.023438c1.152344-.457031 2.265625-.914062 3.351562-1.390624l26.886719 26.886718 45.234375-45.234375-26.886718-26.886719c.476562-1.085937.933593-2.199218 1.382812-3.351562h38.03125v-64h-38.03125c-.449219-1.152344-.90625-2.273438-1.382812-3.351562l26.886718-26.886719-45.234375-45.234375-26.886719 26.886718c-1.085937-.476562-2.199218-.933593-3.351562-1.390624v-38.023438h-64v38.023438c-1.152344.457031-2.265625.914062-3.351562 1.390624l-20.648438-20.644531v-98.769531h256v80h-8v22.046875l-15.601562-15.597656-33.949219 33.949219 15.597656 15.601562h-22.046875v48h22.046875l-15.597656 15.601562 33.949219 33.949219 15.601562-15.597656v22.046875h8zm80-168h-24.734375l-1.722656 5.679688c-.339844 1.125-.792969 2.210937-1.351563 3.25l-2.726562 5.207031 17.464844 17.464843-11.328126 11.328126-17.457031-17.457032-5.214843 2.71875c-1.023438.546875-2.09375 1-3.203126 1.34375l-5.726562 1.710938v24.753906h-16v-24.753906l-5.703125-1.710938c-1.105469-.34375-2.179687-.796875-3.199219-1.34375l-5.21875-2.71875-17.480468 17.457032-11.328126-11.328126 17.464844-17.464843-2.726562-5.207031c-.558594-1.039063-1.011719-2.125-1.351563-3.25l-1.722656-5.679688h-24.734375v-16h24.734375l1.722656-5.679688c.339844-1.125.792969-2.210937 1.351563-3.25l2.726562-5.207031-17.464844-17.464843 11.328126-11.328126 17.457031 17.457032 5.214843-2.71875c1.023438-.546875 2.09375-1 3.203126-1.34375l5.726562-1.710938v-24.753906h16v24.753906l5.703125 1.710938c1.105469.34375 2.179687.796875 3.199219 1.34375l5.21875 2.71875 17.453125-17.457032 11.328125 11.328126-17.460938 17.464843 2.726563 5.207031c.554687 1.039063 1.007812 2.125 1.351562 3.25l1.71875 5.679688h24.761719zm0 0" data-original="#000000" class="active-path" data-old_color="#000000" fill="#FFFFFF"/><path d="m336.5 200c-13.253906 0-24 10.746094-24 24s10.746094 24 24 24 24-10.746094 24-24-10.746094-24-24-24zm0 32c-4.417969 0-8-3.582031-8-8s3.582031-8 8-8 8 3.582031 8 8-3.582031 8-8 8zm0 0" data-original="#000000" class="active-path" data-old_color="#000000" fill="#FFFFFF"/><path d="m256.652344 147.464844 12.128906 12.136718 11.3125-11.3125-12.128906-12.136718c1.511718-2.542969 2.65625-5.289063 3.398437-8.152344h17.136719v-16h-17.136719c-.742187-2.863281-1.886719-5.609375-3.398437-8.152344l12.128906-12.136718-11.3125-11.3125-12.128906 12.136718c-2.542969-1.511718-5.289063-2.65625-8.152344-3.398437v-17.136719h-16v17.136719c-2.863281.742187-5.609375 1.886719-8.152344 3.398437l-12.128906-12.136718-11.3125 11.3125 12.128906 12.136718c-1.511718 2.542969-2.65625 5.289063-3.398437 8.152344h-17.136719v16h17.136719c.742187 2.863281 1.886719 5.609375 3.398437 8.152344l-12.128906 12.136718 11.3125 11.3125 12.128906-12.136718c2.542969 1.511718 5.289063 2.65625 8.152344 3.398437v17.136719h16v-17.136719c2.863281-.742187 5.609375-1.886719 8.152344-3.398437zm-32.152344-27.464844c0-8.835938 7.164062-16 16-16s16 7.164062 16 16-7.164062 16-16 16-16-7.164062-16-16zm0 0" data-original="#000000" class="active-path" data-old_color="#000000" fill="#FFFFFF"/><path d="m216.5 440c0-13.253906-10.746094-24-24-24s-24 10.746094-24 24 10.746094 24 24 24 24-10.746094 24-24zm-24 8c-4.417969 0-8-3.582031-8-8s3.582031-8 8-8 8 3.582031 8 8-3.582031 8-8 8zm0 0" data-original="#000000" class="active-path" data-old_color="#000000" fill="#FFFFFF"/><path d="m176.5 24h32v16h-32zm0 0" data-original="#000000" class="active-path" data-old_color="#000000" fill="#FFFFFF"/></g> </svg>