<?xml version="1.0" encoding="UTF-8"?>
<svg xmlns="http://www.w3.org/2000/svg" viewBox="0 0 512 512" width="512px" height="512px" class=""><g><path d="m448 237c-2.628906 0-5.210938 1.070312-7.070312 2.929688-1.859376 1.859374-2.929688 4.441406-2.929688 7.070312s1.070312 5.210938 2.929688 7.070312c1.859374 1.859376 4.441406 2.929688 7.070312 2.929688s5.210938-1.070312 7.070312-2.929688c1.859376-1.859374 2.929688-4.441406 2.929688-7.070312s-1.070312-5.210938-2.929688-7.070312c-1.859374-1.859376-4.441406-2.929688-7.070312-2.929688zm0 0" data-original="#000000" class="active-path" data-old_color="#000000" fill="#FFFFFF"/><path d="m277.191406 202.449219-54.25-34.773438c-6.800781-4.359375-15.429687-4.660156-22.519531-.785156-7.09375 3.878906-11.496094 11.304687-11.496094 19.386719v69.546875c0 8.078125 4.402344 15.507812 11.492188 19.386719 3.3125 1.808593 6.960937 2.707031 10.601562 2.707031 4.152344 0 8.296875-1.167969 11.921875-3.492188l54.253906-34.773437c6.367188-4.082032 10.167969-11.035156 10.167969-18.601563 0-7.566406-3.800781-14.519531-10.171875-18.601562zm-10.789062 20.363281-54.253906 34.773438c-.695313.445312-1.410157.46875-2.132813.074218-.726563-.394531-1.089844-1.011718-1.089844-1.835937v-69.546875c0-.824219.367188-1.441406 1.089844-1.839844.335937-.183594.675781-.277344 1.011719-.277344.378906 0 .753906.117188 1.121094.355469l54.253906 34.769531c.792968.511719.960937 1.242188.960937 1.765625 0 .523438-.167969 1.25-.960937 1.761719zm0 0" data-original="#000000" class="active-path" data-old_color="#000000" fill="#FFFFFF"/><path d="m48 192.773438v97.5c0 5.523437 4.476562 10 10 10s10-4.476563 10-10v-97.5c0-5.523438-4.476562-10-10-10s-10 4.476562-10 10zm0 0" data-original="#000000" class="active-path" data-old_color="#000000" fill="#FFFFFF"/><path d="m65.070312 144.761719c-1.859374-1.871094-4.441406-2.933594-7.070312-2.933594s-5.210938 1.0625-7.070312 2.933594c-1.859376 1.859375-2.929688 4.429687-2.929688 7.066406 0 2.632813 1.070312 5.203125 2.929688 7.070313 1.859374 1.859374 4.441406 2.929687 7.070312 2.929687s5.210938-1.066406 7.070312-2.929687c1.859376-1.867188 2.929688-4.4375 2.929688-7.070313 0-2.640625-1.070312-5.21875-2.929688-7.066406zm0 0" data-original="#000000" class="active-path" data-old_color="#000000" fill="#FFFFFF"/><path d="m491.234375 365.453125c-2.742187-23.730469-12.6875-46.335937-28.503906-64.367187-16.125-18.386719-37.734375-31.375-61.339844-37.023438-4.617187-10.617188-15.207031-18.0625-27.503906-18.0625s-22.886719 7.445312-27.503907 18.0625c-5.355468 1.28125-10.605468 2.949219-15.710937 4.964844 6.644531-14.308594 10.359375-30.242188 10.359375-47.027344 0-61.773438-50.257812-112.03125-112.03125-112.03125-61.777344 0-112.03125 50.257812-112.03125 112.03125s50.257812 112.03125 112.03125 112.03125c13.621094 0 26.683594-2.445312 38.769531-6.917969-5.867187 12.019531-9.6875 24.996094-11.230469 38.335938-8.882812 2.871093-15.960937 9.777343-19.066406 18.550781h-187.472656c-16.542969 0-30-13.457031-30-30v-304c0-16.542969 13.457031-30 30-30h358c16.542969 0 30 13.457031 30 30v152c0 5.523438 4.476562 10 10 10s10-4.476562 10-10v-152c0-27.570312-22.429688-50-50-50h-358c-27.570312 0-50 22.429688-50 50v304c0 27.570312 22.429688 50 50 50h187.472656c4.121094 11.636719 15.234375 20 28.265625 20 16.535157 0 29.984375-13.449219 29.984375-30.019531 0-12.707031-7.953125-23.589844-19.140625-27.945313 5-38.390625 31.847657-69.898437 68.71875-80.984375 2.460938 7.769531 8.007813 14.175781 15.191407 17.777344l-41.15625 86.082031c-1.300782 2.710938-1.308594 5.863282-.023438 8.582032l17.292969 36.625c-10.425781 1.445312-18.488281 10.394531-18.488281 21.214843v46.667969c0 5.523438 4.476562 10 10 10h91.539062c5.523438 0 10-4.476562 10-10v-46.667969c0-10.820312-8.0625-19.769531-18.492188-21.214843l17.296876-36.625c1.28125-2.71875 1.273437-5.871094-.023438-8.582032l-41.160156-86.082031c7.183594-3.601563 12.726562-10.003906 15.191406-17.777344 36.871094 11.085938 63.71875 42.589844 68.722656 80.980469-11.195312 4.351562-19.152344 15.234375-19.152344 27.949219v.039062c0 16.53125 13.449219 29.980469 29.980469 29.980469s29.980469-13.449219 29.980469-30.019531c0-13.316407-8.730469-24.628907-20.765625-28.527344zm-117.347656-99.453125c5.503906 0 9.980469 4.476562 9.980469 10.019531 0 5.503907-4.476563 9.980469-9.980469 9.980469-5.503907 0-9.980469-4.476562-9.980469-9.980469v-.039062c0-5.503907 4.476562-9.980469 9.980469-9.980469zm-236.917969-44c0-50.746094 41.285156-92.03125 92.03125-92.03125s92.03125 41.285156 92.03125 92.03125-41.285156 92.03125-92.03125 92.03125-92.03125-41.285156-92.03125-92.03125zm128.769531 182c-5.503906 0-9.980469-4.476562-9.980469-9.980469v-.039062c0-5.492188 4.464844-9.964844 9.953126-9.976563h.105468c5.464844.042969 9.90625 4.5 9.90625 10.015625-.003906 5.503907-4.480468 9.980469-9.984375 9.980469zm143.917969 88h-71.539062v-36.667969c0-.796875.648437-1.441406 1.441406-1.441406h68.65625c.792968 0 1.441406.644531 1.441406 1.441406zm-20.5-58.109375h-30.539062l-19.191407-40.640625 24.460938-51.152344v37.433594c0 5.523438 4.476562 10 10 10 5.523437 0 10-4.476562 10-10v-37.433594l24.457031 51.152344zm92.863281-29.890625c-5.503906 0-9.980469-4.476562-9.980469-9.980469v-.039062c0-5.472657 4.429688-9.925781 9.890626-9.976563h.121093c5.488281.015625 9.949219 4.484375 9.949219 10.015625 0 5.503907-4.476562 9.980469-9.980469 9.980469zm0 0" data-original="#000000" class="active-path" data-old_color="#000000" fill="#FFFFFF"/></g> </svg>